<svg id="Layer_1" enable-background="new 0 0 511.8 511.8" height="512" viewBox="0 0 511.8 511.8" width="512" xmlns="http://www.w3.org/2000/svg"><path d="m150.64 269.8c15.307 0 30.337-3.336 44.088-9.699l90.912 90.912v130.787h-60v30h150v-30h-60v-130.787l111.716-111.716c21.639-3.252 38.284-21.966 38.284-44.497v-45h-63.661l14.202-30.222c18.622 1.839 36.944-8.079 45.192-25.632 8.329-17.722 4.046-38.177-9.164-51.204l13.951-30.142-27.227-12.6-13.885 30.002c-18.151-1.796-36.695 7.721-45.128 25.666-8.317 17.698-4.058 38.121 9.108 51.151l-20.197 42.981h-114.267c-7.301-50.817-51.119-90-103.924-90-57.897 0-105 47.551-105 106 0 57.851 46.807 104 105 104zm256.432-201.373c3.51-7.473 12.423-10.735 19.955-7.196 7.485 3.518 10.714 12.47 7.195 19.955-3.518 7.485-12.47 10.713-19.955 7.196s-10.714-12.469-7.195-19.955zm-190.219 171.373h167.574l-83.787 83.787zm218.787-45c0 8.271-6.729 15-15 15h-240c-8.271 0-15-6.729-15-15v-15h270zm-285-105c36.22 0 66.522 25.808 73.491 60h-88.491v45c0 20.273 13.479 37.452 31.943 43.062-5.524 1.276-11.205 1.938-16.943 1.938-41.355 0-75-33.196-75-74 0-41.906 33.645-76 75-76z"/></svg>