<svg xmlns="http://www.w3.org/2000/svg" viewBox="0 0 400 200" width="120" height="60">
	<style>
		tspan { white-space:pre }
		.shp0 { fill: #07072c } 
		.shp1 { fill: #ffffff } 
	</style>
	<path id="Background" class="shp0" d="M0 0L400 0L400 200L0 200L0 0Z" />
	<path id="Shape 1" class="shp1" d="M10 43L21 43L21 164L10 164L10 43Z" />
	<path id="Booking " fill="#ffffff" d="M52.88 132.91L39.12 132.91L39.12 156.15L52.88 156.15Q59.81 156.15 63.12 153.3Q66.48 150.41 66.48 144.51Q66.48 138.56 63.12 135.76Q59.81 132.91 52.88 132.91ZM51.82 106.83L39.12 106.83L39.12 125.94L51.82 125.94Q58.11 125.94 61.17 123.61Q64.27 121.23 64.27 116.39Q64.27 111.59 61.17 109.21Q58.11 106.83 51.82 106.83ZM30.54 163.2L30.54 99.78L52.46 99.78Q62.27 99.78 67.58 103.85Q72.89 107.93 72.89 115.45Q72.89 121.27 70.17 124.71Q67.45 128.15 62.19 129Q68.52 130.36 72 134.7Q75.53 138.99 75.53 145.44Q75.53 153.94 69.75 158.57Q63.97 163.2 53.31 163.2L30.54 163.2ZM108.32 121.1Q102.03 121.1 98.38 126.03Q94.73 130.91 94.73 139.45Q94.73 147.99 98.34 152.92Q101.99 157.8 108.32 157.8Q114.56 157.8 118.22 152.88Q121.87 147.95 121.87 139.45Q121.87 131 118.22 126.07Q114.56 121.1 108.32 121.1ZM108.32 114.47Q118.52 114.47 124.34 121.1Q130.16 127.73 130.16 139.45Q130.16 151.14 124.34 157.8Q118.52 164.43 108.32 164.43Q98.08 164.43 92.26 157.8Q86.49 151.14 86.49 139.45Q86.49 127.73 92.26 121.1Q98.08 114.47 108.32 114.47ZM161.55 121.1Q155.26 121.1 151.61 126.03Q147.95 130.91 147.95 139.45Q147.95 147.99 151.57 152.92Q155.22 157.8 161.55 157.8Q167.79 157.8 171.45 152.88Q175.1 147.95 175.1 139.45Q175.1 131 171.45 126.07Q167.79 121.1 161.55 121.1ZM161.55 114.47Q171.74 114.47 177.56 121.1Q183.38 127.73 183.38 139.45Q183.38 151.14 177.56 157.8Q171.74 164.43 161.55 164.43Q151.31 164.43 145.49 157.8Q139.71 151.14 139.71 139.45Q139.71 127.73 145.49 121.1Q151.31 114.47 161.55 114.47ZM196.04 163.2L196.04 97.1L203.9 97.1L203.9 136.14L227.22 115.62L237.21 115.62L211.97 137.88L238.27 163.2L228.07 163.2L203.9 139.96L203.9 163.2L196.04 163.2ZM246.72 163.2L246.72 115.62L254.54 115.62L254.54 163.2L246.72 163.2ZM246.72 107L246.72 97.1L254.54 97.1L254.54 107L246.72 107ZM310.44 134.48L310.44 163.2L302.63 163.2L302.63 134.74Q302.63 127.98 299.99 124.63Q297.36 121.27 292.09 121.27Q285.76 121.27 282.11 125.31Q278.45 129.34 278.45 136.31L278.45 163.2L270.6 163.2L270.6 115.62L278.45 115.62L278.45 123.01Q281.26 118.72 285.04 116.6Q288.86 114.47 293.83 114.47Q302.03 114.47 306.24 119.57Q310.44 124.63 310.44 134.48ZM357.34 138.86Q357.34 130.36 353.81 125.69Q350.33 121.02 344 121.02Q337.71 121.02 334.19 125.69Q330.71 130.36 330.71 138.86Q330.71 147.31 334.19 151.99Q337.71 156.66 344 156.66Q350.33 156.66 353.81 151.99Q357.34 147.31 357.34 138.86ZM365.16 115.62L365.16 157.3Q365.16 169.44 359.76 175.39Q354.37 181.3 343.24 181.3Q339.12 181.3 335.46 180.7Q331.81 180.06 328.37 178.79L328.37 171.19Q331.81 173.06 335.17 173.95Q338.52 174.84 342.01 174.84Q349.69 174.84 353.52 170.85Q357.34 166.81 357.34 158.7L357.34 154.83Q354.92 159.04 351.14 161.12Q347.36 163.2 342.09 163.2Q333.34 163.2 327.99 156.53Q322.63 149.86 322.63 138.86Q322.63 127.81 327.99 121.14Q333.34 114.47 342.09 114.47Q347.36 114.47 351.14 116.56Q354.92 118.64 357.34 122.84L357.34 115.62L365.16 115.62Z" />
	<path id="Last Minute  " fill="#ffffff" d="M30.01 83.15L30.01 45.97L35.04 45.97L35.04 78.91L53.14 78.91L53.14 83.15L30.01 83.15ZM75.45 69.13L70.9 69.13Q65.34 69.13 63.2 70.4Q61.06 71.67 61.06 74.73Q61.06 77.17 62.65 78.62Q64.27 80.04 67.04 80.04Q70.85 80.04 73.14 77.35Q75.45 74.63 75.45 70.15L75.45 69.13ZM80.03 67.24L80.03 83.15L75.45 83.15L75.45 78.91Q73.88 81.45 71.54 82.67Q69.2 83.87 65.81 83.87Q61.53 83.87 58.99 81.48Q56.48 79.06 56.48 75.03Q56.48 70.32 59.61 67.93Q62.78 65.54 69.03 65.54L75.45 65.54L75.45 65.09Q75.45 61.93 73.36 60.21Q71.29 58.47 67.53 58.47Q65.14 58.47 62.88 59.04Q60.61 59.62 58.52 60.76L58.52 56.53Q61.03 55.56 63.4 55.08Q65.77 54.59 68.01 54.59Q74.06 54.59 77.05 57.72Q80.03 60.86 80.03 67.24ZM107.25 56.08L107.25 60.41Q105.31 59.42 103.22 58.92Q101.13 58.42 98.89 58.42Q95.47 58.42 93.76 59.47Q92.06 60.51 92.06 62.6Q92.06 64.2 93.28 65.12Q94.5 66.02 98.19 66.84L99.76 67.19Q104.64 68.23 106.68 70.15Q108.75 72.04 108.75 75.45Q108.75 79.34 105.66 81.6Q102.6 83.87 97.22 83.87Q94.98 83.87 92.54 83.45Q90.12 83 87.43 82.13L87.43 77.4Q89.97 78.72 92.44 79.39Q94.9 80.04 97.32 80.04Q100.55 80.04 102.3 78.94Q104.04 77.82 104.04 75.8Q104.04 73.93 102.77 72.94Q101.52 71.94 97.27 71.02L95.67 70.65Q91.41 69.75 89.52 67.91Q87.63 66.04 87.63 62.8Q87.63 58.87 90.42 56.73Q93.21 54.59 98.34 54.59Q100.88 54.59 103.12 54.96Q105.36 55.33 107.25 56.08ZM115.97 47.34L120.58 47.34L120.58 55.26L130.01 55.26L130.01 58.82L120.58 58.82L120.58 73.96Q120.58 77.37 121.5 78.34Q122.44 79.31 125.31 79.31L130.01 79.31L130.01 83.15L125.31 83.15Q120 83.15 117.99 81.18Q115.97 79.19 115.97 73.96L115.97 58.82L112.61 58.82L112.61 55.26L115.97 55.26L115.97 47.34ZM152.45 83.15L152.45 45.97L159.95 45.97L169.43 71.27L178.97 45.97L186.47 45.97L186.47 83.15L181.56 83.15L181.56 50.5L171.97 76L166.92 76L157.33 50.5L157.33 83.15L152.45 83.15ZM196.25 83.15L196.25 55.26L200.84 55.26L200.84 83.15L196.25 83.15ZM196.25 50.2L196.25 44.4L200.84 44.4L200.84 50.2L196.25 50.2ZM233.61 66.31L233.61 83.15L229.02 83.15L229.02 66.46Q229.02 62.5 227.48 60.54Q225.94 58.57 222.85 58.57Q219.14 58.57 217 60.94Q214.86 63.3 214.86 67.38L214.86 83.15L210.25 83.15L210.25 55.26L214.86 55.26L214.86 59.59Q216.5 57.08 218.72 55.83Q220.96 54.59 223.87 54.59Q228.68 54.59 231.14 57.57Q233.61 60.54 233.61 66.31ZM242.27 72.14L242.27 55.26L246.85 55.26L246.85 71.97Q246.85 75.93 248.4 77.92Q249.94 79.89 253.03 79.89Q256.74 79.89 258.88 77.52Q261.05 75.15 261.05 71.07L261.05 55.26L265.63 55.26L265.63 83.15L261.05 83.15L261.05 78.86Q259.38 81.4 257.16 82.65Q254.97 83.87 252.06 83.87Q247.25 83.87 244.76 80.88Q242.27 77.89 242.27 72.14ZM253.8 54.59L253.8 54.59ZM274.99 47.34L279.6 47.34L279.6 55.26L289.04 55.26L289.04 58.82L279.6 58.82L279.6 73.96Q279.6 77.37 280.52 78.34Q281.47 79.31 284.33 79.31L289.04 79.31L289.04 83.15L284.33 83.15Q279.03 83.15 277.01 81.18Q274.99 79.19 274.99 73.96L274.99 58.82L271.63 58.82L271.63 55.26L274.99 55.26L274.99 47.34ZM318.92 68.06L318.92 70.3L297.85 70.3Q298.15 75.03 300.69 77.52Q303.26 79.99 307.82 79.99Q310.46 79.99 312.92 79.34Q315.41 78.69 317.85 77.4L317.85 81.73Q315.39 82.77 312.8 83.32Q310.21 83.87 307.54 83.87Q300.87 83.87 296.96 79.99Q293.07 76.1 293.07 69.48Q293.07 62.63 296.76 58.62Q300.47 54.59 306.75 54.59Q312.37 54.59 315.64 58.22Q318.92 61.83 318.92 68.06ZM298 66.74L314.34 66.71Q314.29 62.95 312.22 60.71Q310.18 58.47 306.79 58.47Q302.96 58.47 300.64 60.64Q298.35 62.8 298 66.74Z" />
</svg>